HIERARCHY
ROOT Hips
{
	OFFSET 55.310501 45.591206 43.872097
	CHANNELS 6 Xposition Yposition Zposition Zrotation Xrotation Yrotation
	JOINT Chest
	{
		OFFSET -0.153500 1.163101 7.852402
		CHANNELS 6 Xposition Yposition Zposition Zrotation Xrotation Yrotation
		JOINT Chest2
		{
			OFFSET 0.000000 0.000000 3.343300
			CHANNELS 6 Xposition Yposition Zposition Zrotation Xrotation Yrotation
			JOINT Neck
			{
				OFFSET 0.000000 0.000000 7.785500
				CHANNELS 6 Xposition Yposition Zposition Zrotation Xrotation Yrotation
				JOINT Head
				{
					OFFSET 0.000000 0.000000 2.173901
					CHANNELS 6 Xposition Yposition Zposition Zrotation Xrotation Yrotation
					End Site
					{
						OFFSET 0.000000 0.000000 10.528198
					}
				}
			}
			JOINT LeftCollar
			{
				OFFSET 2.676300 -1.652401 4.938301
				CHANNELS 6 Xposition Yposition Zposition Zrotation Xrotation Yrotation
				JOINT LeftShoulder
				{
					OFFSET 4.299000 0.000000 0.000000
					CHANNELS 6 Xposition Yposition Zposition Zrotation Xrotation Yrotation
					JOINT LeftElbow
					{
						OFFSET 0.000000 0.000000 -10.245102
						CHANNELS 6 Xposition Yposition Zposition Zrotation Xrotation Yrotation
						JOINT LeftWrist
						{
							OFFSET 0.000000 0.000000 -12.703300
							CHANNELS 6 Xposition Yposition Zposition Zrotation Xrotation Yrotation
							End Site
							{
								OFFSET 0.000000 0.000000 -2.173901
							}
						}
					}
				}
			}
			JOINT RightCollar
			{
				OFFSET -2.534599 -1.686401 5.195000
				CHANNELS 6 Xposition Yposition Zposition Zrotation Xrotation Yrotation
				JOINT RightShoulder
				{
					OFFSET -4.144100 0.000000 0.000000
					CHANNELS 6 Xposition Yposition Zposition Zrotation Xrotation Yrotation
					JOINT RightElbow
					{
						OFFSET 0.000000 0.000000 -10.116501
						CHANNELS 6 Xposition Yposition Zposition Zrotation Xrotation Yrotation
						JOINT RightWrist
						{
							OFFSET 0.000000 0.000000 -12.937801
							CHANNELS 6 Xposition Yposition Zposition Zrotation Xrotation Yrotation
							End Site
							{
								OFFSET 0.000000 0.000000 -2.173901
							}
						}
					}
				}
			}
		}
	}
	JOINT LeftHip
	{
		OFFSET 2.175598 0.064499 -2.662899
		CHANNELS 6 Xposition Yposition Zposition Zrotation Xrotation Yrotation
		JOINT LeftKnee
		{
			OFFSET 0.000000 -0.000004 -18.585800
			CHANNELS 6 Xposition Yposition Zposition Zrotation Xrotation Yrotation
			JOINT LeftAnkle
			{
				OFFSET 0.000000 0.000000 -18.979500
				CHANNELS 6 Xposition Yposition Zposition Zrotation Xrotation Yrotation
				End Site
				{
					OFFSET 0.000000 -9.264000 0.000000
				}
			}
		}
	}
	JOINT RightHip
	{
		OFFSET -2.092400 -0.058102 -2.581200
		CHANNELS 6 Xposition Yposition Zposition Zrotation Xrotation Yrotation
		JOINT RightKnee
		{
			OFFSET 0.000000 -0.000004 -18.665001
			CHANNELS 6 Xposition Yposition Zposition Zrotation Xrotation Yrotation
			JOINT RightAnkle
			{
				OFFSET 0.000000 0.000000 -18.566601
				CHANNELS 6 Xposition Yposition Zposition Zrotation Xrotation Yrotation
				End Site
				{
					OFFSET 0.000000 -8.497601 0.000000
				}
			}
		}
	}
}
MOTION
Frames: 10
Frame Time: 0.041667
33.992897 62.980598 42.863297 -6.962865 2.437175 17.296988 -0.153501 1.163100 7.852406 6.496601 5.742834 -4.864195 0.000002 -0.000002 3.343308 -21.726200 -3.179096 -2.846706 -0.000008 -0.000008 7.785495 42.770918 -5.003370 -32.359558 -0.000005 0.000008 2.173901 4.242541 4.160985 4.511144 2.676291 -1.652403 4.938303 -8.456219 5.772672 -5.609438 4.299007 0.000011 -0.000006 -12.061606 3.450660 -58.892732 0.000002 0.000001 -10.245108 396.553079 -8.787376 362.974448 -0.000013 0.000007 -12.703306 -46.426343 1.490203 2.797174 -2.534598 -1.686401 5.195004 -7.537784 -0.958206 -3.550064 -4.144108 0.000003 -0.000009 11.015316 -17.828962 106.341442 0.000007 0.000010 -10.116497 -98.025741 -28.141887 -129.318786 -0.000003 -0.000003 -12.937796 75.660123 -10.084386 35.943437 2.175598 0.064494 -2.662893 -242.225501 -47.500363 32.864319 -0.000006 0.000004 -18.585804 174.197746 -190.565106 -193.026965 -0.000007 0.000010 -18.979504 236.266735 59.133941 49.296866 -2.092399 -0.058110 -2.581192 -7.417680 -3.648902 -13.168723 -0.000005 -0.000002 -18.665001 -201.706360 160.946318 168.351309 0.000014 -0.000008 -18.566603 29.353349 23.452628 17.792204
34.034302 62.979599 42.872993 -6.869614 2.461867 17.182125 -0.153496 1.163103 7.852407 6.389180 5.850355 -4.726701 -0.000002 0.000000 3.343295 -21.793612 -3.229652 -2.864422 -0.000006 -0.000002 7.785492 42.766055 -5.115650 -32.387200 0.000004 0.000007 2.173911 4.295076 4.194522 4.488940 2.676294 -1.652402 4.938294 -8.367081 5.727381 -5.576098 4.298995 0.000000 -0.000007 -12.043638 3.621788 -58.959784 -0.000005 -0.000013 -10.245099 396.548434 -8.835305 362.990103 0.000001 0.000005 -12.703295 -46.392776 1.489888 2.993232 -2.534599 -1.686398 5.194996 -7.155178 -0.717384 -4.398435 -4.144099 -0.000005 -0.000010 11.021871 -17.998165 107.143046 0.000001 0.000016 -10.116491 -97.850082 -28.110972 -129.282394 0.000001 0.000004 -12.937798 75.758587 -10.003765 35.977974 2.175596 0.064495 -2.662895 -242.165341 -47.316296 32.960591 -0.000010 0.000000 -18.585800 174.255666 -190.564723 -193.147463 -0.000005 0.000002 -18.979504 236.084778 58.878505 49.515333 -2.092399 -0.058107 -2.581201 -7.534926 -3.735421 -13.022179 -0.000006 -0.000001 -18.665005 -201.711974 160.873139 168.435798 0.000012 -0.000019 -18.566605 29.352168 23.515120 17.755488
34.073597 62.978302 42.884491 -6.819545 2.475765 17.148245 -0.153497 1.163093 7.852404 6.341585 5.915535 -4.719533 0.000004 0.000009 3.343303 -21.834151 -3.279523 -2.874125 0.000002 0.000002 7.785496 42.744628 -5.175468 -32.366166 0.000006 -0.000000 2.173904 4.353888 4.217885 4.453277 2.676292 -1.652402 4.938293 -8.370357 5.764829 -5.489383 4.298998 0.000007 -0.000011 -11.986610 3.747325 -59.036665 -0.000000 0.000005 -10.245100 396.683809 -8.875120 363.031303 -0.000008 0.000001 -12.703297 -46.453838 1.494852 3.163586 -2.534600 -1.686401 5.194992 -6.855308 -0.438250 -4.402938 -4.144101 0.000003 -0.000006 10.746054 -18.263547 107.146509 0.000008 0.000009 -10.116505 -97.769138 -27.991369 -129.267477 -0.000002 -0.000005 -12.937805 75.931343 -9.938220 35.999605 2.175598 0.064495 -2.662893 -244.018234 -47.812226 31.664327 -0.000003 -0.000004 -18.585802 174.825563 -190.475439 -193.255558 -0.000007 0.000000 -18.979506 236.863393 58.641416 49.299527 -2.092393 -0.058102 -2.581196 -7.658871 -3.817447 -12.962999 -0.000009 -0.000005 -18.665005 -201.677072 160.777175 168.546065 0.000013 -0.000000 -18.566605 29.395116 23.508108 17.574720
34.109699 62.977695 42.896790 -6.792288 2.468704 17.121211 -0.153506 1.163106 7.852405 6.320894 5.974511 -4.715558 0.000001 -0.000005 3.343304 -21.840015 -3.305020 -2.879780 0.000006 -0.000008 7.785502 42.725617 -5.236416 -32.346567 0.000003 0.000010 2.173909 4.390410 4.239344 4.436043 2.676301 -1.652400 4.938293 -8.396374 5.773045 -5.480528 4.299005 0.000000 -0.000005 -11.930040 3.863578 -59.026133 0.000000 0.000010 -10.245108 396.868470 -8.934915 363.093403 -0.000000 -0.000003 -12.703306 -46.568899 1.510792 3.287047 -2.534593 -1.686400 5.194999 -6.645144 -0.264996 -4.403207 -4.144103 0.000000 -0.000017 10.478655 -18.349757 107.113902 0.000003 0.000007 -10.116497 -97.848231 -27.966614 -129.264650 -0.000003 0.000002 -12.937794 76.003654 -9.908426 36.037608 2.175596 0.064501 -2.662895 -245.972707 -48.324961 30.260514 -0.000004 -0.000005 -18.585804 175.310261 -190.443911 -193.391971 -0.000002 0.000008 -18.979506 237.790686 58.451099 48.872032 -2.092399 -0.058097 -2.581192 -7.798111 -3.890061 -12.928696 -0.000007 -0.000003 -18.665005 -201.608743 160.657169 168.695359 0.000013 -0.000005 -18.566601 29.387978 23.546708 17.677771
34.145611 62.977100 42.909798 -6.799726 2.425603 17.083999 -0.153498 1.163099 7.852402 6.338772 6.059615 -4.678931 0.000004 -0.000003 3.343306 -21.816451 -3.322159 -2.886795 -0.000004 -0.000002 7.785501 42.702753 -5.324785 -32.351071 -0.000002 0.000001 2.173908 4.424069 4.261151 4.409139 2.676288 -1.652391 4.938299 -8.394420 5.719800 -5.524031 4.298996 -0.000001 -0.000002 -11.945117 3.990706 -58.973520 0.000001 -0.000003 -10.245111 397.102035 -8.959673 363.150858 -0.000002 -0.000004 -12.703304 -46.741112 1.522511 3.338441 -2.534603 -1.686392 5.194995 -6.599420 -0.143287 -3.936783 -4.144099 -0.000003 -0.000004 10.215267 -18.390916 106.595211 0.000009 0.000012 -10.116497 -97.774691 -27.853781 -129.020457 0.000003 -0.000007 -12.937799 76.263884 -9.967412 36.131936 2.175590 0.064495 -2.662889 -248.799093 -49.011764 28.155949 0.000001 -0.000001 -18.585796 176.005669 -190.405088 -193.515433 -0.000005 0.000001 -18.979506 239.117164 58.315527 48.158977 -2.092396 -0.058109 -2.581201 -7.833295 -3.915288 -12.870090 -0.000001 -0.000010 -18.665005 -198.111140 161.032993 168.024033 0.000005 0.000012 -18.566603 26.134389 23.260448 17.723281
34.182297 62.977402 42.923492 -6.819454 2.376465 17.055973 -0.153502 1.163101 7.852402 6.370716 6.132622 -4.653528 0.000002 -0.000005 3.343306 -21.739855 -3.342081 -2.884738 0.000004 0.000004 7.785501 42.674698 -5.430341 -32.383375 -0.000003 0.000013 2.173904 4.434861 4.278655 4.404350 2.676299 -1.652396 4.938302 -8.388021 5.655091 -5.603792 4.298997 0.000001 -0.000008 -12.045826 4.123670 -58.886326 -0.000002 0.000013 -10.245108 397.350380 -8.967822 363.196484 0.000003 0.000010 -12.703299 -46.905457 1.536177 3.348573 -2.534595 -1.686395 5.194995 -6.569770 -0.135844 -3.948104 -4.144102 -0.000003 -0.000011 10.019154 -18.181451 106.554899 0.000002 0.000004 -10.116514 -97.773448 -27.727373 -128.787219 0.000005 -0.000006 -12.937802 76.550540 -10.031139 36.265190 2.175597 0.064497 -2.662899 -252.002398 -49.699322 25.745761 -0.000002 -0.000001 -18.585806 176.780759 -190.369844 -193.651340 -0.000006 0.000003 -18.979507 240.631826 58.195930 47.278026 -2.092398 -0.058115 -2.581201 -7.816586 -3.922030 -12.813556 0.000003 -0.000018 -18.665005 -197.495425 161.046735 167.973285 -0.000001 -0.000002 -18.566603 24.753970 23.804123 20.783707
34.221104 62.978104 42.935692 -6.815122 2.296306 16.964696 -0.153496 1.163096 7.852406 6.379510 6.267025 -4.549764 0.000012 0.000002 3.343303 -21.599792 -3.371591 -2.871672 -0.000004 -0.000004 7.785499 42.581937 -5.547041 -32.417201 -0.000005 -0.000002 2.173910 4.434761 4.275108 4.396941 2.676293 -1.652399 4.938307 -8.424560 5.629690 -5.732477 4.298996 0.000004 -0.000006 -12.163184 4.203763 -58.801406 0.000005 -0.000000 -10.245109 397.496437 -8.981874 363.218532 -0.000006 0.000003 -12.703300 -46.966122 1.545265 3.344687 -2.534602 -1.686405 5.195004 -6.660967 -0.256308 -4.465735 -4.144100 0.000004 -0.000004 10.021633 -17.768578 106.978282 0.000011 0.000006 -10.116505 -97.798590 -27.647984 -128.557534 0.000003 -0.000007 -12.937796 76.795129 -10.091475 36.414426 2.175601 0.064490 -2.662897 -255.169365 -50.207225 23.325448 -0.000005 -0.000007 -18.585804 177.397990 -190.359804 -193.831958 -0.000008 -0.000001 -18.979509 242.182116 58.006153 46.344036 -2.092398 -0.058105 -2.581196 -7.807113 -3.893760 -12.683071 -0.000002 -0.000018 -18.665005 -196.896486 161.062513 167.911472 0.000016 -0.000005 -18.566601 24.270917 23.689690 20.649072
34.261597 62.978203 42.946396 -6.818518 2.226044 16.850524 -0.153494 1.163114 7.852404 6.386897 6.400288 -4.403771 0.000005 0.000002 3.343298 -21.456206 -3.402939 -2.857758 -0.000002 0.000004 7.785494 42.489763 -5.681129 -32.472533 -0.000006 0.000004 2.173902 4.399321 4.261051 4.403619 2.676293 -1.652383 4.938294 -8.435999 5.592964 -5.856079 4.298999 0.000004 -0.000013 -12.290988 4.290021 -58.741259 -0.000003 0.000014 -10.245100 397.522419 -9.015874 363.212767 -0.000006 0.000005 -12.703300 -46.916771 1.555177 3.340621 -2.534601 -1.686393 5.194999 -6.996400 -0.495074 -4.518281 -4.144105 0.000000 -0.000006 10.139177 -17.384843 106.868869 0.000008 -0.000000 -10.116501 -97.781296 -27.643285 -128.326646 0.000003 -0.000009 -12.937799 76.946295 -10.127840 36.631343 2.175605 0.064509 -2.662889 -257.110997 -50.406752 21.825393 -0.000005 -0.000005 -18.585796 177.661184 -190.428515 -193.992522 -0.000012 0.000008 -18.979506 243.272159 57.826410 45.505835 -2.092393 -0.058100 -2.581201 -7.753463 -3.882425 -12.541205 -0.000000 -0.000023 -18.664997 -196.512110 161.072431 167.905065 0.000009 0.000004 -18.566603 23.947692 23.595884 20.520419
34.306305 62.977901 42.955791 -6.855297 2.177692 16.782755 -0.153498 1.163106 7.852404 6.428396 6.485601 -4.326072 0.000004 0.000011 3.343297 -21.349845 -3.454957 -2.844520 -0.000004 -0.000002 7.785501 42.402890 -5.776058 -32.513606 -0.000004 0.000004 2.173912 4.364494 4.231413 4.402605 2.676293 -1.652398 4.938300 -8.446406 5.618397 -5.882203 4.299003 0.000006 -0.000010 -12.375145 4.327063 -58.767911 -0.000002 0.000003 -10.245106 397.491383 -9.018198 363.196429 -0.000001 0.000008 -12.703304 -46.830868 1.561843 3.337278 -2.534603 -1.686402 5.195003 -7.295562 -0.680376 -4.541178 -4.144101 -0.000001 -0.000004 10.238027 -17.028312 106.762837 0.000005 0.000005 -10.116507 -97.730472 -27.529031 -128.122246 0.000003 0.000003 -12.937813 77.244344 -10.116349 36.858904 2.175597 0.064493 -2.662895 -258.564898 -50.548645 20.714564 -0.000003 -0.000010 -18.585804 178.003759 -190.445468 -194.242179 -0.000002 -0.000006 -18.979509 244.018835 57.426680 44.908794 -2.092399 -0.058108 -2.581202 -7.638358 -3.899549 -12.447435 0.000000 -0.000001 -18.665005 -196.354032 161.071529 167.944858 0.000009 0.000011 -18.566605 23.781445 23.512885 20.407970
34.353905 62.979198 42.965595 -6.908822 2.191900 16.769579 -0.153506 1.163101 7.852407 6.475154 6.477142 -4.312266 0.000001 -0.000009 3.343300 -21.296252 -3.498658 -2.834273 0.000000 0.000004 7.785507 42.312178 -5.808942 -32.518746 -0.000005 -0.000002 2.173903 4.356676 4.184845 4.431659 2.676299 -1.652402 4.938307 -8.473014 5.696661 -5.871986 4.298999 -0.000008 -0.000010 -12.352991 4.318122 -58.788552 0.000004 0.000017 -10.245099 397.369040 -9.060529 363.170720 -0.000010 0.000009 -12.703299 -46.694636 1.572265 3.377438 -2.534598 -1.686401 5.194998 -7.460291 -0.774426 -4.541423 -4.144105 -0.000003 0.000000 10.241262 -16.823451 106.656273 0.000015 0.000006 -10.116505 -97.698602 -27.451977 -128.022047 0.000006 -0.000001 -12.937799 77.481495 -10.079085 37.093566 2.175595 0.064497 -2.662897 -260.262828 -50.740219 19.488640 -0.000009 0.000005 -18.585800 178.446069 -190.435045 -194.520209 -0.000006 -0.000000 -18.979504 244.947058 56.952498 44.276831 -2.092398 -0.058105 -2.581192 -7.618347 -4.005675 -12.415114 0.000001 -0.000006 -18.665007 -196.411187 160.960948 168.071380 0.000007 -0.000001 -18.566603 23.875445 23.436712 20.319441
